<svg width="64" height="57" viewBox="0 0 64 57" fill="none" xmlns="http://www.w3.org/2000/svg">
<path d="M31.77 46.0523C40.8867 46.0523 48.2772 39.0591 48.2772 30.4325C48.2772 21.806 40.8867 14.8127 31.77 14.8127C22.6532 14.8127 15.2627 21.806 15.2627 30.4325C15.2627 39.0591 22.6532 46.0523 31.77 46.0523Z" stroke="white" stroke-width="3"/>
<path d="M23.8661 2.22217H39.7231L41.2588 7.61809L41.731 7.80316C51.4353 11.604 57.738 20.5356 57.738 30.4755C57.738 31.5452 57.6635 32.6197 57.5154 33.6799L57.4489 34.158L61.6358 38.1197L53.7323 51.0888L48.0298 49.6405L47.6251 49.9353C43.0931 53.225 37.5206 54.9999 31.8181 54.9999C26.1156 55 20.5632 53.2155 16.0112 49.9353L15.606 49.6405L9.90348 51.0888L2 38.1197L6.18684 34.158L6.12031 33.6799C5.97225 32.6149 5.89772 31.5452 5.89772 30.4755C5.89779 20.5356 12.2005 11.5898 21.9048 7.80316L22.377 7.61809L23.8661 2.22217Z" stroke="white" stroke-width="3"/>
<path d="M30.2691 11.0735V22.4333H27.728L31.7698 29.0599L35.8116 22.4333H33.2705L33.2703 11.0735H30.274" fill="white"/>
<path d="M50.2377 38.8822L39.8409 33.2022L41.1114 31.1199L33.0257 31.1187L37.0696 37.7441L38.3402 35.6617L48.7371 41.3415L50.2353 38.8862" fill="white"/>
<path d="M14.8022 41.3417L25.1991 35.6618L26.4696 37.7442L30.5136 31.1188L22.4279 31.12L23.6984 33.2023L13.3016 38.8823L14.7998 41.3377" fill="white"/>
</svg>
